<svg width="28" height="28" viewBox="0 0 28 28" fill="none" xmlns="http://www.w3.org/2000/svg">
<rect width="28" height="28" fill="#E5E5E5"/>
<g id="Desktop - Join Group" clip-path="url(#clip0_0_1)">
<rect width="1440" height="1024" transform="translate(-1074 -146)" fill="white"/>
<g id="Group 60">
</g>
<rect id="Rectangle" opacity="0.6" x="-1074" y="-146" width="1440" height="1024" fill="black"/>
<g id="Group 61">
<g id="Group 3">
<g id="Rectangle_2" filter="url(#filter0_d_0_1)">
<rect x="-722" y="40" width="736" height="513" rx="8" fill="white"/>
</g>
</g>
<g id="Group 3_2" opacity="0.8">
<g id="baseline-cancel-24px" clip-path="url(#clip1_0_1)">
<path id="Vector" d="M14 2.33331C7.54838 2.33331 2.33337 7.54831 2.33337 14C2.33337 20.4516 7.54838 25.6666 14 25.6666C20.4517 25.6666 25.6667 20.4516 25.6667 14C25.6667 7.54831 20.4517 2.33331 14 2.33331ZM19.8334 18.1883L18.1884 19.8333L14 15.645L9.81171 19.8333L8.16671 18.1883L12.355 14L8.16671 9.81164L9.81171 8.16665L14 12.355L18.1884 8.16665L19.8334 9.81164L15.645 14L19.8334 18.1883Z" fill="white"/>
</g>
</g>
</g>
</g>
<defs>
<filter id="filter0_d_0_1" x="-746" y="24" width="784" height="561" filterUnits="userSpaceOnUse" color-interpolation-filters="sRGB">
<feFlood flood-opacity="0" result="BackgroundImageFix"/>
<feColorMatrix in="SourceAlpha" type="matrix" values="0 0 0 0 0 0 0 0 0 0 0 0 0 0 0 0 0 0 127 0" result="hardAlpha"/>
<feOffset dy="8"/>
<feGaussianBlur stdDeviation="12"/>
<feColorMatrix type="matrix" values="0 0 0 0 0 0 0 0 0 0 0 0 0 0 0 0 0 0 0.25 0"/>
<feBlend mode="normal" in2="BackgroundImageFix" result="effect1_dropShadow_0_1"/>
<feBlend mode="normal" in="SourceGraphic" in2="effect1_dropShadow_0_1" result="shape"/>
</filter>
<clipPath id="clip0_0_1">
<rect width="1440" height="1024" fill="white" transform="translate(-1074 -146)"/>
</clipPath>
<clipPath id="clip1_0_1">
<rect width="28" height="28" fill="white"/>
</clipPath>
</defs>
</svg>
